<?xml version="1.0" encoding="UTF-8"?>
<svg width="514px" height="514px" viewBox="0 0 514 514" version="1.1" xmlns="http://www.w3.org/2000/svg" xmlns:xlink="http://www.w3.org/1999/xlink">
    <title>Group</title>
    <g id="Page-1" stroke="none" stroke-width="1" fill="none" fill-rule="evenodd">
        <g id="Group" transform="translate(0.761365, 0.923398)">
            <circle id="Oval" stroke-opacity="0.22" stroke="#000000" stroke-width="20" fill="#B794F4" cx="256.238635" cy="256.076602" r="246"></circle>
            <g id="Group-2" transform="translate(133.500000, 327.542252) rotate(-94.000000) translate(-133.500000, -327.542252) translate(64.000000, 279.542252)" stroke="#FFFFFF">
                <line x1="138.628956" y1="93.3092217" x2="69.6289558" y2="47.3092217" id="Shape" stroke-width="12" stroke-linecap="round" stroke-linejoin="round"></line>
                <polyline id="Shape" stroke-width="12" stroke-linecap="round" stroke-linejoin="round" points="136.753956 78.3092217 138.628956 93.4203328 123.628956 95.3092217"></polyline>
                <circle id="node" stroke-width="11" cx="25.5691885" cy="25.5658502" r="19.5"></circle>
            </g>
            <g id="Group-2-Copy-2" transform="translate(356.339806, 220.000000) rotate(-94.000000) translate(-356.339806, -220.000000) translate(253.339806, 151.000000)" stroke="#FFFFFF">
                <line x1="138.628956" y1="93.3092217" x2="69.6289558" y2="47.3092217" id="Shape" stroke-width="12" stroke-linecap="round" stroke-linejoin="round"></line>
                <polyline id="Shape" stroke-width="12" stroke-linecap="round" stroke-linejoin="round" points="136.753956 78.3092217 138.628956 93.4203328 123.628956 95.3092217"></polyline>
                <circle id="node" stroke-width="11" cx="25.5691885" cy="25.5658502" r="19.5"></circle>
                <circle id="node-copy" stroke-width="11" cx="180.725383" cy="112.373426" r="19.5"></circle>
            </g>
            <g id="Group-2-Copy" transform="translate(230.098304, 234.158600) rotate(-4.000000) translate(-230.098304, -234.158600) translate(182.598304, 190.658600)" stroke="#FFFFFF">
                <line x1="94.5342329" y1="84.6794987" x2="63.3397378" y2="55.6638853" id="Shape" stroke-width="12" stroke-linecap="round" stroke-linejoin="round"></line>
                <polyline id="Shape" stroke-width="12" stroke-linecap="round" stroke-linejoin="round" points="92.6592329 69.6794987 94.5342329 84.7906098 79.5342329 86.6794987"></polyline>
                <circle id="node" stroke-width="11" cx="25.7074119" cy="25.7086136" r="19.5"></circle>
            </g>
        </g>
    </g>
</svg>